<svg width="147" height="31" viewBox="0 0 147 31" fill="none" xmlns="http://www.w3.org/2000/svg">
<path d="M10.2678 2H15.8878L26.0678 30H20.8878L19.0878 25.04H7.08781L5.28781 30H0.107813L10.2678 2ZM8.86781 20.16H17.2878L13.0678 8.62L8.86781 20.16ZM28.9547 10H33.8347V30H28.9547V10ZM31.4347 7.42C30.7147 7.42 30.108 7.18667 29.6147 6.72C29.1214 6.24 28.8747 5.64 28.8747 4.92C28.8747 4.21333 29.1214 3.62 29.6147 3.14C30.108 2.66 30.708 2.42 31.4147 2.42C32.1214 2.42 32.7147 2.66 33.1947 3.14C33.688 3.62 33.9347 4.21333 33.9347 4.92C33.9347 5.64 33.6947 6.24 33.2147 6.72C32.7347 7.18667 32.1414 7.42 31.4347 7.42ZM53.2934 -2.38419e-06H58.1734V30H53.2934V27.5C52.6534 28.3933 51.8468 29.12 50.8734 29.68C49.9001 30.24 48.7734 30.52 47.4934 30.52C46.0401 30.52 44.6801 30.2467 43.4134 29.7C42.1468 29.1533 41.0268 28.4 40.0534 27.44C39.0934 26.4667 38.3401 25.3467 37.7934 24.08C37.2468 22.8133 36.9734 21.4533 36.9734 20C36.9734 18.5467 37.2468 17.1867 37.7934 15.92C38.3401 14.6533 39.0934 13.54 40.0534 12.58C41.0268 11.6067 42.1468 10.8467 43.4134 10.3C44.6801 9.75333 46.0401 9.48 47.4934 9.48C48.7734 9.48 49.9001 9.76 50.8734 10.32C51.8468 10.8667 52.6534 11.5933 53.2934 12.5V-2.38419e-06ZM47.5534 25.82C48.5934 25.82 49.5134 25.56 50.3134 25.04C51.1134 24.52 51.7401 23.82 52.1934 22.94C52.6468 22.0467 52.8734 21.0667 52.8734 20C52.8734 18.92 52.6468 17.94 52.1934 17.06C51.7401 16.1667 51.1068 15.46 50.2934 14.94C49.4934 14.42 48.5801 14.16 47.5534 14.16C46.5268 14.16 45.5868 14.4267 44.7334 14.96C43.8934 15.48 43.2201 16.18 42.7134 17.06C42.2201 17.94 41.9734 18.92 41.9734 20C41.9734 21.08 42.2268 22.06 42.7334 22.94C43.2401 23.82 43.9134 24.52 44.7534 25.04C45.6068 25.56 46.5401 25.82 47.5534 25.82ZM75.9381 30.52C74.0448 30.52 72.2648 30.1467 70.5981 29.4C68.9315 28.64 67.4648 27.5933 66.1981 26.26C64.9448 24.9267 63.9581 23.3867 63.2381 21.64C62.5315 19.88 62.1781 18 62.1781 16C62.1781 13.9867 62.5315 12.1067 63.2381 10.36C63.9581 8.6 64.9448 7.06 66.1981 5.74C67.4648 4.40667 68.9315 3.36667 70.5981 2.62C72.2648 1.86 74.0448 1.48 75.9381 1.48C78.2048 1.48 80.2915 2.00666 82.1981 3.06C84.1048 4.1 85.6848 5.49333 86.9381 7.24L82.5781 9.58C81.7915 8.60667 80.8115 7.82667 79.6381 7.24C78.4781 6.65333 77.2448 6.36 75.9381 6.36C74.7115 6.36 73.5581 6.61333 72.4781 7.12C71.3981 7.61333 70.4515 8.30667 69.6381 9.2C68.8248 10.08 68.1915 11.1067 67.7381 12.28C67.2848 13.44 67.0581 14.68 67.0581 16C67.0581 17.3333 67.2848 18.58 67.7381 19.74C68.2048 20.9 68.8448 21.9267 69.6581 22.82C70.4715 23.7 71.4115 24.3933 72.4781 24.9C73.5581 25.3933 74.7115 25.64 75.9381 25.64C77.2715 25.64 78.5115 25.3467 79.6581 24.76C80.8181 24.16 81.7915 23.3733 82.5781 22.4L86.9381 24.76C85.6848 26.4933 84.1048 27.8867 82.1981 28.94C80.2915 29.9933 78.2048 30.52 75.9381 30.52ZM104.738 10H109.618V30H104.738L104.518 27.52C103.971 28.4133 103.244 29.14 102.338 29.7C101.444 30.2467 100.384 30.52 99.1578 30.52C97.6778 30.52 96.2911 30.24 94.9978 29.68C93.7045 29.12 92.5645 28.3467 91.5778 27.36C90.6045 26.3733 89.8378 25.2333 89.2778 23.94C88.7311 22.6467 88.4578 21.26 88.4578 19.78C88.4578 18.3533 88.7178 17.0133 89.2378 15.76C89.7711 14.5067 90.5111 13.4067 91.4578 12.46C92.4045 11.5133 93.4978 10.7733 94.7378 10.24C95.9778 9.70667 97.3111 9.44 98.7378 9.44C100.058 9.44 101.238 9.73333 102.278 10.32C103.331 10.9067 104.224 11.6533 104.958 12.56L104.738 10ZM99.0378 25.82C100.078 25.82 100.998 25.56 101.798 25.04C102.598 24.52 103.224 23.82 103.678 22.94C104.131 22.0467 104.358 21.0667 104.358 20C104.358 18.92 104.131 17.94 103.678 17.06C103.224 16.1667 102.591 15.46 101.778 14.94C100.978 14.42 100.064 14.16 99.0378 14.16C98.0111 14.16 97.0711 14.4267 96.2178 14.96C95.3778 15.48 94.7045 16.18 94.1978 17.06C93.7045 17.94 93.4578 18.92 93.4578 20C93.4578 21.08 93.7111 22.06 94.2178 22.94C94.7245 23.82 95.3978 24.52 96.2378 25.04C97.0911 25.56 98.0245 25.82 99.0378 25.82ZM113.623 30L113.603 10H118.483L118.503 11.78C119.183 11.06 119.996 10.4933 120.943 10.08C121.89 9.65333 122.91 9.44 124.003 9.44C124.736 9.44 125.47 9.54667 126.203 9.76L124.283 14.68C123.776 14.48 123.27 14.38 122.763 14.38C121.976 14.38 121.256 14.5733 120.603 14.96C119.963 15.3333 119.45 15.8467 119.063 16.5C118.69 17.14 118.503 17.8533 118.503 18.64V30H113.623ZM136.309 30.52C134.469 30.52 132.789 30.0467 131.269 29.1C129.763 28.1533 128.556 26.88 127.649 25.28C126.756 23.68 126.309 21.9133 126.309 19.98C126.309 18.5267 126.569 17.1667 127.089 15.9C127.609 14.62 128.323 13.5 129.229 12.54C130.149 11.5667 131.216 10.8067 132.429 10.26C133.643 9.71333 134.936 9.44 136.309 9.44C137.869 9.44 139.296 9.77333 140.589 10.44C141.896 11.0933 143.003 11.9933 143.909 13.14C144.816 14.2867 145.476 15.5933 145.889 17.06C146.303 18.5267 146.396 20.06 146.169 21.66H131.549C131.736 22.4067 132.043 23.08 132.469 23.68C132.896 24.2667 133.436 24.74 134.089 25.1C134.743 25.4467 135.483 25.6267 136.309 25.64C137.163 25.6533 137.936 25.4533 138.629 25.04C139.336 24.6133 139.923 24.04 140.389 23.32L145.369 24.48C144.556 26.2533 143.343 27.7067 141.729 28.84C140.116 29.96 138.309 30.52 136.309 30.52ZM131.389 18H141.229C141.083 17.2 140.769 16.48 140.289 15.84C139.823 15.1867 139.243 14.6667 138.549 14.28C137.856 13.8933 137.109 13.7 136.309 13.7C135.509 13.7 134.769 13.8933 134.089 14.28C133.409 14.6533 132.829 15.1667 132.349 15.82C131.883 16.46 131.563 17.1867 131.389 18Z" fill="#4F46E5"/>
</svg>
