<svg width="36" height="36" viewBox="0 0 36 36" fill="none" xmlns="http://www.w3.org/2000/svg">
<path d="M16.475 0.248543C16.0002 0.378027 15.3528 0.622606 15.0363 0.795252C14.2019 1.22686 13.0221 2.55047 12.5617 3.52879C12.1877 4.33447 12.1733 4.46395 12.1013 7.67227C12.0438 9.8591 11.9575 11.082 11.8424 11.2834C11.4539 11.974 11.195 12.0172 7.77084 12.0891C4.15969 12.1754 3.65614 12.2905 2.27498 13.3552C-0.7463 15.6715 -0.760687 20.5343 2.24621 22.8362C4.46182 24.5195 7.82839 24.462 9.85697 22.678C10.7202 21.9155 11.2525 21.1098 11.641 20.002C11.9143 19.1963 11.9431 18.8079 11.9431 16.1031C11.9431 11.8445 11.7417 12.0172 16.547 11.9165C19.856 11.8445 19.9423 11.8301 20.6473 11.4561C22.9492 10.2476 24.1577 8.10388 23.9851 5.55737C23.8124 2.92454 22.0428 0.852798 19.41 0.205381C18.259 -0.0823593 17.5972 -0.0679722 16.475 0.248543Z" fill="#4F46E5"/>
<path d="M28.4164 12.1899C27.9416 12.3194 27.2942 12.564 26.9777 12.7367C26.1433 13.1683 24.9635 14.4919 24.5031 15.4702C24.1291 16.2759 24.1147 16.4054 24.0428 19.6137C23.9852 21.8005 23.8989 23.0234 23.7838 23.2248C23.3953 23.9154 23.1364 23.9586 19.7122 24.0305C16.1011 24.1168 15.5975 24.2319 14.2164 25.2966C11.1951 27.6129 11.1807 32.4757 14.1876 34.7776C16.4032 36.4609 19.7698 36.4034 21.7984 34.6194C22.6616 33.8569 23.1939 33.0512 23.5824 31.9434C23.8557 31.1377 23.8845 30.7493 23.8845 28.0445C23.8845 23.7859 23.6831 23.9586 28.4884 23.8579C31.7974 23.7859 31.8837 23.7715 32.5887 23.3975C34.8906 22.189 36.0991 20.0453 35.9265 17.4988C35.7538 14.8659 33.9842 12.7942 31.3514 12.1468C30.2004 11.859 29.5386 11.8734 28.4164 12.1899Z" fill="#4F46E5"/>
</svg>
